# xmcd
#
# Track frame offsets:
#	150
#	18838
#	25533
#	31098
#	43540
#	58515
#	68175
#	82000
#	100178
#	111870
#	129935
#	142080
#	157485
#	167675
#	181635
#	196865
#	213743
#	228295
#	240860
#	250898
#	261450
#	278778
#	289965
#	301805
#	313295
#
# Disc length: 4338
#
# Revision: 1
# Processed by: cddbd v1.5.1PL0 Copyright (c) Steve Scherf et al.
# Submitted via: Grip 2.96
# Normalized: r0:DSETVAR1
#
DISCID=5d10f019
DTITLE=Various Artist - The Greatest Country Show on Earth (live) - cd1
DYEAR=1900
DGENRE=
TTITLE0=Bobby Bare - Marie Laveau
TTITLE1=The Forrester Sisters - I fell in love again last night
TTITLE2=Razzy Bailey - I keep comin' back
TTITLE3=Gene Watson - 14 carat mind
TTITLE4=Nitty gritty dirt band - Long hard road - Sharecropper's
TTITLE5=Mickey Gilley - Don't the girls all get prettier at closing time
TTITLE6=Earl Tomas Conley - Somewhere between right and wrong
TTITLE7=Mel Tillis - Good woman blues
TTITLE8=Tammy Wynette - Singing my song
TTITLE9=Charlie Rich - Behind closed doors
TTITLE10=Tom T. Hall - I like beer
TTITLE11=Faron Young - Hello walls
TTITLE12=The Bellamy Brothers - Sugar daddy
TTITLE13=T.G. Sheppard - War is hell
TTITLE14=Lee Greenwood - Fools gold
TTITLE15=Johnny Rodriguez - She don't cry like she used to
TTITLE16=Leon Everette - I could'a had you
TTITLE17=David Frizzell - Lost my baby blues
TTITLE18=Kenny Price - Walkin' on new grass
TTITLE19=Hoyt Axton - Boney fingers
TTITLE20=Terri Gibbs - Somebody's knockin'
TTITLE21=Moe Bandy - I'm drunk again
TTITLE22=Dottie West - Here comes my baby
TTITLE23=Jerry Lee Lewis - Rockiin' my life away
TTITLE24=Lynn Anderson - I've never loved anyone more
EXTD=
EXTT0=
EXTT1=
EXTT2=
EXTT3=
EXTT4=
EXTT5=
EXTT6=
EXTT7=
EXTT8=
EXTT9=
EXTT10=
EXTT11=
EXTT12=
EXTT13=
EXTT14=
EXTT15=
EXTT16=
EXTT17=
EXTT18=
EXTT19=
EXTT20=
EXTT21=
EXTT22=
EXTT23=
EXTT24=
PLAYORDER=
